<?xml version="1.0" encoding="utf-8"?>
<svg  xmlns="http://www.w3.org/2000/svg" xmlns:svg="http://www.w3.org/2000/svg" version="1.1" viewBox="0 0 220 375">
    <title>The Eldritch Ink logo.</title>
    <desc>The logo portrays an ink bottle on the label of which appears the words Eldritch Ink.</desc>
 <g>
  <path d="m95.324 372.42c-17.453-.25125-34.812-2.1074-51.793-6.2302-8.6834-1.3359-16.651-4.9483-24.976-7.6063-6.4045-3.2851-14.2-6.2087-17.709-12.85-.87566-11.739-.35922-23.426.099821-35.148.10173-10.917.51895-21.846 1.4089-32.656.189-10.667-2.0073-22.272 4.8058-31.506 9.0671-15 25.467-24.018 42.267-27.503 2.8633-2.8445 5.4898-6.6005 9.7726-7.859.7931-20.768-.04917-41.732.1154-62.578-2.4199-3.7507-.4908-9.5376-2.5415-12.724-4.527-1.0647-8.0521-4.63-6.4594-9.4938 1.362-4.2658-.28977-10.395 4.3212-12.895.21948-3.331 4.214-5.0116 7.764-6.8405 3.9386-1.3196 7.856-2.2054 10.754-5.0208 3.9684-.55738 7.5929-2.2414 6.9953-6.9423 1.9989-14.583 1.3361-29.802 5.6275-43.898 2.9626-5.1158 2.3367-11.872 3.0293-17.732.83013-9.5805.6019-20.379 6.675-28.377 4.1349-2.9973 8.5176-5.6731 13.941-4.9683 9.2883-1.183 19.471 4.5326 20.319 14.521 3.5695 11.173 2.7725 23.16 3.6992 34.575 5.4681 10.277 3.052 22.478 5.0552 33.598.88579 5.088-.52056 11.409 2.4081 15.63 4.5582 1.7079 7.8826 5.6599 12.491 6.8798 6.6545 1.794 14.086 4.6515 16.143 12.114-.66653 4.8451 2.0166 10.664-.75373 14.751-2.6494 3.324-9.7641 2.2446-8.573 7.3724-.41087 5.9336-2.1397 11.53-1.1512 17.567 1.3308 17.543-.34166 35.312 1.4042 52.828 5.182 1.5694 9.2314 5.2291 12.549 9.4721 14.034 3.8915 28.882 9.7211 37.277 22.331 4.3187 7.9027 6.2182 16.945 8.5096 25.396.67672 15.115-.1365 29.939.68908 44.767-.16705 10.459 1.2827 21.04-.23973 31.411-2.2703 4.9586-7.0036 8.4053-11.794 10.578-11.384 6.1562-24.085 9.3408-36.618 12.539-12.252 2.7386-25.354 5.2877-37.492 5.3831-12.018 1.9947-25.557 1.5528-38.022 1.1168zm-28.643-2.6001c-.37265-.70565-.406.67358 0 0zm77.467 0c-.37265-.70565-.40599.67358 0 0zm-20.669-.50252c22.583-.92397 44.867-5.1905 66.496-11.697 9.4406-3.7455 20.461-6.3415 26.69-14.933.94011-3.5183 1.5713-9.0898-1.6669-5.1219-12.127 8.8982-27.129 13.502-41.681 16.931-16.625 2.5887-33.227 5.7564-50.167 5.6045-27.066 1.6951-54.327-.76284-80.884-5.9233-7.2338-2.1259-14.575-3.6594-21.645-6.0854-5.9761-2.3539-11.585-6.2468-17.029-8.906-1.0016 4.1569.2405 9.2109 4.7113 11.11 17.509 11.219 38.862 13.735 58.948 17.082 18.373 2.4156 37.514 2.6836 56.226 1.9385zm16.112-.47396c-.37265-.70566-.406.67358 0 0zm5.2078 0c-.37265-.70566-.40602.67358 0 0zm-77.794-.32549c-.3726-.70566-.40607.67354 0 0zm81.7 0c-.3726-.70566-.40607.67354 0 0zm-89.836-.97648c-.3726-.70565-.40605.67353 0 0zm-7.1608-.3255c-.37268-.70559-.40597.67354 0 0zm-4.2313-1.302c-.37265-.70566-.406.67358 0 0zm114.9-.32549c-.3726-.70565-.40607.67354 0 0zm-116.53-.65099c-.37265-.70565-.406.67358 0 0zm-2.9294-1.302c-.3726-.70565-.40605.67353 0 0zm130.52 0c-.3726-.70565-.40607.67353 0 0zm13.02-2.9294c-.3726-.70566-.40604.67354 0 0zm-160.47-1.302c-.37268-.70559-.40597.67354 0 0zm100.79-1.1205c16.67-.32061 33.044-3.0627 49.261-6.666 11.269-2.6599 22.999-5.7866 32.573-12.436-.70759-19.53.50996-39.159-.84484-58.628-4.0185.38415-8.6751 4.0348-13.369 4.5922-21.903 6.1692-44.657 9.3449-67.336 10.735-9.8905.58592-19.527.18447-29.358-.25966-14.614-.27591-29.251-1.1724-43.612-3.8146-12.498-1.683-24.7-4.711-36.733-8.1768-5.023-1.4028-9.4677-5.3108-13.757-7.2474-.47442 6.9689-.75853 14.371.89409 21.178 1.2834 3.7524-2.8089 6.6987-1.4364 11.013.84615 6.5136-.4754 13.384-.038515 20.157.66262 3.6328-1.0721 8.2024 3.2907 10.333 6.0681 5.3719 14.484 6.8959 21.479 9.6496 32.068 9.0908 65.81 11.142 98.986 9.571zm-47.735.14403c-.37267-.70558-.40597.67355 0 0zm58.914 0c-.37268-.70558-.40597.67355 0 0zm-68.678-1.302c-.37265-.70565-.406.67358 0 0zm129.87-.32548c-.3726-.70566-.40607.67352 0 0zm-142.57-.97649c-.3726-.70565-.40604.67353 0 0zm99.601 0c-.3726-.70565-.40605.67353 0 0zm-102.86-.651c-.37265-.70565-.406.67358 0 0zm116.85-.97647c-.37265-.70566-.406.67357 0 0zm36.455-1.953c-.37265-.70566-.406.67357 0 0zm-203.11-5.2078c-.3726-.70565-.40605.67353 0 0zm200.5-3.2548c-.37267-.70559-.40597.67354 0 0zm2.7666-2.1157c.42255-1.2867-1.0632 1.2151 0 0zm7.8761-6.7058c5.9451-4.4081 1.6803-12.57 2.7342-18.731-.26204-13.862.42871-28.743-.8137-41.94-3.2422 2.4905-8.6807 4.7445-7.2536 9.922.89458 17.94-.39783 36.057 1.1886 53.897 1.716-.65988 2.9558-1.7664 4.1447-3.1482zm-213.1-1.2688c-.37265-.70565-.40602.67359 0 0zm0-9.4394c-.37267-.70557-.40597.67356 0 0zm216.78-18.879c-.37265-.70564-.406.67359 0 0zm-105.14-10.416c-.37267-.70558-.40597.67356 0 0zm-29.946-.65097c-.3726-.70566-.40604.67352 0 0zm55.66 0c-.37261-.70566-.40608.67352 0 0zm-16.6-.60718c22.146-.19015 44.135-3.8669 65.749-8.4634 9.6035-3.0449 19.967-5.8003 27.693-12.654 1.4468-2.3491 2.9221-11.258-.71422-7.5553-11.573 8.4444-26.292 10.746-39.775 14.398-19.023 3.4104-38.303 5.6397-57.669 6.042-29.685.12249-59.624-.73301-88.584-7.9849-8.7593-2.7132-18.178-5.3689-24.595-12.335-1.5928 3.2077-2.0017 9.4038 2.0715 11.616 15.213 8.6785 32.976 10.417 50.008 13.341 15.022 2.0469 30.266 3.1208 45.309 3.9504 6.6945.17413 13.713-.085 20.506-.35576zm20.832-.3693c-.3726-.70566-.40604.67353 0 0zm6.8354-.32552c-.37267-.70557-.40597.67356 0 0zm13.02-2.2784c-.37264-.70565-.40599.67359 0 0zm-114.9-.97648c-.37265-.70565-.40602.67358 0 0zm-7.8119-1.6275c-.37268-.70557-.40597.67356 0 0zm140.94-.32548c-.37265-.70566-.40602.67358 0 0zm-150.38-1.302c-.3726-.70566-.40605.67353 0 0zm167.95-3.5805c-.37265-.70565-.406.67358 0 0zm-46.219-.97648c-.37265-.70565-.40602.67358 0 0zm48.988-.16276c.42252-1.2867-1.0632 1.2151 0 0zm-29.783-3.0923c-.3726-.70566-.40604.67353 0 0zm10.416-1.953c-.3726-.70565-.40607.67353 0 0zm3.9059-.65099c-.37265-.70566-.40602.67358 0 0zm27.993-.97649c-.37265-.70565-.406.67359 0 0zm-21.483-.97648c-.37266-.70565-.406.67358 0 0zm1.6275-1.953c-.37265-.70566-.40599.67357 0 0zm.39033-2.5247c5.6551-3.7038.21781-10.963-2.303-15.096-4.742-7.8553-12.906-13.601-21.781-15.416-3.6987 2.0229-14.115 7.1081-13.058 5.5379 11.879 1.8533 21.064 10.664 28.43 19.485 2.8804 2.7852 3.9269 10.498 8.711 5.4895zm-3.6215-11.515c-2.6363-5.1856 2.9878 3.3208 0 0zm-2.645-3.7807c-3.4123-5.0667-7.9969-8.3997-13.373-11.474 6.2361 1.5025 11.6 7.3026 15.041 12.857-1.0034.31815-1.0884-.87886-1.6679-1.3834zm-2.4274.26953c-2.5328-3.468-6.0017-6.2314-9.2729-8.6597 4.1564 1.6136 8.0535 5.9985 9.9201 9.4013l-.56978-.6528zm-4.9132-.92054c-5.18-5.5528 4.1344 2.0354.38839.42101zm-6.8552-11.528c1.4972-.43834-.42261.96106 0 0zm23.978 27.071c-.37265-.70566-.406.67358 0 0zm-192.04-3.5805c-.37267-.70558-.40597.67356 0 0zm206.36 0c-.37268-.70558-.40598.67356 0 0zm-201.16-1.302c-.37265-.70566-.40602.67357 0 0zm172.84 0c-.37265-.70566-.40603.67357 0 0zm-171.57-1.4453c6.57-9.241 17.102-15.246 27.6-19.313 15.94-4.5231 32.571-.61863 48.739.39608 12.67 2.2595 26.172 2.2001 38.595.32873-9.3772-1.1506-19.613.90601-29.387-.2801-6.675-1.2816 2.4744-1.433 4.7955-.35693 10.841-1.1917 21.892-.67916 32.566-3.2576 13.442-2.1402 27.81-4.9198 38.039-14.479-4.0226 1.1402-7.6007 5.1756-12.057 6.496-10.646 4.7867-22.501 6.1665-33.899 8.323-13.641.87015-27.332 1.6108-40.907-.6382-13.539-2.6077-28.242-4.7442-39.45-13.395-.05687-8.0882-2.5855 4.2714 3.55 4.089 4.0363 1.5921 4.8634 5.9653-1.5202 3.8073-11.111-1.5491-20.603 5.4222-28.779 11.983-2.8958 3.967-6.675 3.3913-3.7016-2.1873 4.4977-7.081 11.343-12.389 18.901-17.009 2.5718-1.1491 8.5183-4.7635 2.7254-2.9224-5.5132 1.2896-9.7333 4.7665-14.384 7.476-5.0772 4.2352-10.757 7.4711-13.127 13.833-4.2152 3.7812-6.2009 10.495-3.4641 15.686 1.9609-.14556 3.3969 2.4986 5.1624 1.4217zm5.8953-9.029c9.3252-11.048 24.688-16.603 39.169-15.519 3.281-.29719 14.064 1.8754 5.5059 1.8911-15.811-1.2548-32.971 2.6055-44.674 13.962zm-12.369 6.5683c-.37265-.70565-.40602.67358 0 0zm13.02-3.5805c-.37267-.70558-.40597.67356 0 0zm157.21-.32548c-.37265-.70566-.40602.67357 0 0zm-172.19-.97648c-.37265-.70566-.40602.67357 0 0zm168.61-1.302c-.37261-.70565-.40605.67354 0 0zm-140.29-5.8589c-.3726-.70565-.40607.67353 0 0zm157.54-.97648c-.37261-.70565-.40606.67353 0 0zm-169.58-1.953c-.3726-.70566-.40607.67352 0 0zm166.98-.65101c-.37265-.70564-.406.67359 0 0zm-92.114-4.8824c-.37265-.70564-.40602.67354 0 0zm83.326 0c-.37265-.70564-.40602.67354 0 0zm-149.08-2.9295c-.37265-.70562-.40602.67356 0 0zm45.895 0c-.37265-.70562-.40602.67356 0 0zm-58.914-.97648c-.37263-.70562-.40602.67356 0 0zm188.46 0c-.37263-.70562-.40603.67356 0 0zm-106.76-.77786c-4.0766-.52344-8.998-1.0997-13.338-2.0628 1.997-1.5615 12.328 1.5445 10.525-.86274-2.5108-.10545-15.083-1.62-8.6309-2.4903 13.022 3.2151 26.516 1.7431 39.599-.30965-10.287-.56914-20.827 2.3118-31.103-.20206 3.3606-.63394 7.8722.97096 11.784-.38046 9.61-1.6293 20.022-.0733 29.085-3.5332-12.687-.0915-25.952 4.0263-38.246.82882 5.4212-.29492 11.537.92202 16.556-.24741-1.2561-1.5989-8.378.22189-11.696-1.2185-12.229.54593-25.098.57999-36.271-4.3676.28604 4.5926 6.8075 4.2184 10.443 5.2212 6.0925 1.4541-5.2718.80632-7.2282-.58733-5.0079-1.732-7.5084-1.9584-3.8486.99054 1.1526 1.4398 11.72 1.8606 8.0167 2.2578-5.937.51226-11.506-4.0666-17.074-3.7204 4.4149 3.4389 9.8085 5.2369 15.224 6.4135-7.6346-1.0088 1.6525 2.3838 4.5055 2.4361 7.0526 1.4217 14.923 2.6712 21.697 1.8346zm-25.93-4.1588c1.4972-.43834-.42262.96105 0 0zm4.4484-2.387c-3.5236-1.0155 4.2951.54462 0 0zm83.001 6.3472c-.37263-.70564-.40601.67355 0 0zm-90.488-.32549c-.37265-.70564-.40602.67356 0 0zm-29.294-.32549c-.37262-.70563-.40602.67356 0 0zm11.718 0c-.37262-.70563-.40602.67356 0 0zm14.322 0c-.37265-.70563-.40602.67356 0 0zm-13.345-.97648c-.37263-.70563-.40602.67355 0 0zm44.266-.32549c-.37263-.70563-.40602.67355 0 0zm13.996 0c-.37263-.70563-.40602.67355 0 0zm-49.476-.97648c-.37263-.70563-.40602.67356 0 0zm-38.083-.32549c-.37265-.70562-.40602.67356 0 0zm40.036-.97647c-.37265-.70564-.40602.67355 0 0zm108.39 0c-.37265-.70564-.40603.67355 0 0zm-41.337-1.7902c-2.512-.92965-3.9128 1.2344 0 0zm1.302-.81372c-.37263-.70563-.40602.67355 0 0zm60.217-.32549c-.37265-.70563-.40602.67355 0 0zm-154.28-.32549c-.37263-.70562-.40602.67356 0 0zm21.808 0c-.37262-.70562-.40602.67356 0 0zm108.06-.97648c-.37265-.70563-.40602.67355 0 0zm-41.337-1.317c5.7136-.31812 13.563-.98243 17.538-3.4026 5.7962-2.3651-3.5876-.24817-5.8628.42351-5.9509 1.6148-12.306.97202-18.185 2.492-.36371 2.2954 5.0076.10649 6.51.48715zm-40.36-1.2869c-.37265-.70563-.40602.67355 0 0zm18.706-.92942c2.2694-2.8826-13.193-.94806-7.0461-2.9766 3.092.41822 11.032.0427 5.6692-2.5376 6.0842-3.2497-4.9368-3.1736-7.7276-3.497-6.8842-2.091 6.2366-4.2211 5.6175-2.6397-.58436-3.965-7.444-1.2836-10.42-3.2536 2.31-2.6206 11.962 2.3038 9.4409-3.4377-4.2821.11273-11.784-2.0439-3.1064-1.6462 7.5809-.71947-2.0588-4.0927-5.6475-3.1162-7.2008-3.2307-6.2907 3.4558-5.9749 8.5039 1.2068 4.3153-2.7112 12.652 2.4761 13.86 5.3841.97464 11.482 1.27 16.719.74021zm-47.223-1.1488c3.6293-4.8111-5.0626 4.0751-.02397.0246zm2.4778 1.1018c-.37265-.70563-.40602.67355 0 0zm19.855-.32549c-.37265-.70563-.40602.67355 0 0zm94.758-.24412c-.3411-5.9731-2.607 2.0725 0 0zm-67.741-.0814c-.37262-.70562-.40601.67356 0 0zm73.888-.32548c-.37265-.70563-.40602.67355 0 0zm-45.895-.32549c-.37263-.70563-.40603.67356 0 0zm-55.982-1.5461c1.069-7.4259-1.0089-2.1179-.52588 1.0578.89871.37273.47606-.57944.52588-1.0578zm-2.1815-.48825c-.01523-4.2504-2.8042 3.6779-.0088.0448zm30.171.73237c-.37262-.70563-.40602.67355 0 0zm69.006 0c-.37263-.70563-.40602.67355 0 0zm-2.9294-.97648c-.37263-.70564-.40603.67355 0 0zm-116.2-.32547c-.37263-.70564-.40602.67356 0 0zm12.694 0c-.37263-.70564-.40602.67356 0 0zm-10.09-1.953c-.37263-.70562-.40602.67356 0 0zm1.302-.36534c-.72211-1.6056-1.2241 2.2937 0 0zm6.9557-1.1808c.54283-7.2623.1002-14.605-.50921-21.858-1.7391 6.467.03752 15.109-1.0418 20.913-.60664 1.8187 1.4144 4.06 1.551.94486zm8.8936.16895c-.43815-1.4633.02133 3.1987 0 0zm30.696.40067c-.37263-.70563-.40602.67356 0 0zm-27.959-2.2122c-.84038 2.5987-.46476 1.3631 0 0zm90.129 1.2357c-.37263-.70564-.40603.67354 0 0zm-90.259-4.4755c-.48797-1.6426.18347 4.8687 0 0zm26.399 1.0452c2.7283-3.5586-7.131-1.3278-2.3475.66366.85496-.0978 1.8658.37965 2.3475-.66366zm58.325.17542c-.37265-.70563-.40603.67356 0 0zm-9.7612-10.09c-.33157-15.948-.31519-31.897-.20033-47.848-4.4906 1.011-.49452 8.8745-1.6833 12.795.3044 14.474-.092 29.014.99179 43.436 1.6105-2.564.69467-5.534.89182-8.3848zm-74.867 6.9789c-.64909-2.2501-.73241 2.51 0 0zm17.251-.46903c-.37263-.70563-.40602.67355 0 0zm4.8824 0c-.37262-.70563-.40602.67355 0 0zm4.4943-2.1971c-3.5368-6.3982-3.926 5.8154 0 0zm-1.8903-2.3598c-.37265-.70563-.40603.67355 0 0zm-17.902-5.2078c-.37263-.70564-.40602.67354 0 0zm18.846-9.5207c2.2089-7.5685-5.5679-5.8333-10.494-6.189-4.1852-.2498-10.523-2.1553-13.449.006-3.8949 4.2785-1.4938 6.177 4.1732 5.1324 5.8391-.65676 11.772-1.9127 17.687-1.1462-.48413 4.0461 2.3002 10.999 2.0833 2.1971zm1.0089 3.9872c-.37265-.70562-.40601.67356 0 0zm-38.298-4.0861c.2272-4.775-.94643-9.116.20928-13.593-.34934-4.2094.2118-9.0369-1.2746-12.862-2.8535 7.6417-.56546 16.326-1.1746 24.414 1.1565 1.9904 2.1269 8.4268 2.2399 2.0408zm22.347-.79623c-.37262-.70564-.40602.67355 0 0zm-25.389-.32549c-.37265-.70563-.40602.67356 0 0zm80.396-2.1577c4.1264-.81693 1.9732-9.4882-2.8479-5.8792-6.9411 1.6155-14.059 1.3698-21.076 2.5032-.999 6.2722 8.616 2.2574 12.651 3.6511 3.7202.14045 7.6134.67387 11.273-.27532zm-45.895-3.3757c-.37263-.70563-.40602.67355 0 0zm-.52913-.82518c9.9672.3415 20.52-.21318 30.266-2.2544-2.574-2.0994-9.1587 1.1363-12.486-.74332.45965-4.5934-1.9086-6.4072-.88428-10.858 1.1875-5.0931-1.9153-10.774-1.4867-2.4656 1.8957 6.2627-2.718 9.9943-1.8409 1.5344.78138-7.2499-1.4109-7.0326-.86236.0418 1.6691 5.348-3.2104 9.4245-2.4105 1.6621.63291-5.4656-2.0458-11.846-1.4385-2.5564.62422 2.5701.22048 12.508-1.7781 5.9168-1.4329-3.2178 1.9079-11.208-2.4812-11.26-.12213 4.8712 2.2474 11.154-.64291 15.135-1.2569-4.5238-.52493-11.058-2.1467-15.949-3.3713 2.2961-.0609 8.1195-1.7186 11.762.2291 3.6191-1.427 11.677-1.1233 3.6989-.54351-5.1138.16821-10.516-1.1107-15.461-2.1992.6681-.06764 7.0734-1.3887 10.242.27986 3.0976-1.587 11.889 2.1138 11.157l.8344.23361zm-1.4238-1.7788c.37263-.70564.40602.67355 0 0zm15.624-10.09c-.37263-.70562-.40602.67356 0 0zm-1.953-2.2784c-.37262-.70564-.40602.67355 0 0zm-46.219-1.953c-.37263-.70563-.40602.67356 0 0zm54.358-4.1418c-2.4485-4.534-1.5506 6.1472 0 0zm-53.06.96818c-.45604-2.3968-.44774 2.5967 0 0zm47.528-.0814c-.37265-.70564-.40602.67356 0 0zm-10.741-.32549c-.37265-.70563-.40602.67356 0 0zm19.367-1.1392c-1.346-3.445-1.1166 3.4138 0 0zm-56.148 0c-.89541-1.5216-.48653 1.2939 0 0zm1.302-1.3212c-.64909-2.2501-.73241 2.51 0 0zm36.782.18196c-.37262-.70563-.40601.67356 0 0zm-5.5335-.32549c-.37262-.70562-.40602.67356 0 0zm8.4629-.32548c-.37265-.70563-.40602.67355 0 0zm51.429-2.2785c-.37263-.70562-.40602.67356 0 0zm-66.896-1.774c2.1878-4.3019-2.1085-11.186-.81004-3.2182.23667.66736-.61523 6.4424.81004 3.2182zm4.4025-1.4995c.21738-7.8016-2.8967-4.299-1.3283 1.3209.13688 2.8779 2.1352.32587 1.3283-1.3209zm-7.2843-2.1585c-.24244-9.0879-2.6751-1.2458-1.8279 3.3093 1.4895 3.4533 2.7122-1.061 1.8279-3.3093zm-4.257 1.8861c-.39845-6.0181-1.7835-9.7648-1.4063-1.3276-1.2036 2.3354 1.7306 4.804 1.4063 1.3276zm8.6118.94199c-.37265-.70563-.40602.67355 0 0zm65.424-6.8354c-.37266-.70562-.40603.67356 0 0zm-67.702-.97647c-.37265-.70564-.40602.67354 0 0zm6.8354-3.9059c-.37262-.70563-.40602.67356 0 0zm23.11-.49095c11.889-.53516 23.67-2.5132 35.153-5.3284-3.0659-1.4652-8.6084 1.3476-12.5 1.6828-8.9924 1.9793-18.142 1.7105-27.234 2.0919-4.9801 1.6187-11.395-.55735-16.942-.34294-12.67-.0168-25.042-3.4143-37.399-5.4056-6.2859-2.2508-3.7609 1.1389 1.0184 1.5941 13.208 3.261 26.741 5.2974 40.29 6.0364 3.1079-1.0015 8.1138 1.0384 11.971.0828 1.8906-.0393 3.7682-.17116 5.6441-.41101zm-36.455.16545c-.37265-.70562-.40602.67356 0 0zm50.777-.32548c-.37263-.70563-.40603.67355 0 0zm12.043-1.953c-.37265-.70563-.40602.67356 0 0zm-77.142-.32549c-.37262-.70562-.40602.67356 0 0zm25.713-.97647c-.37262-.70564-.40602.67355 0 0zm27.993 0c-.37263-.70564-.40602.67355 0 0zm3.5805 0c-.37263-.70564-.40603.67355 0 0zm5.2078 0c-.37263-.70564-.40602.67355 0 0zm26.04-1.6275c-.37263-.70562-.40602.67356 0 0zm-.47487-.83537c.11728-2.1731-2.2568 1.3234 0 0zm-95.219-2.0941c-.37263-.70563-.40602.67355 0 0zm27.017 0c-.37265-.70563-.40602.67355 0 0zm74.213-.32549c-.37262-.70562-.40602.67356 0 0zm-71.369-.56961c-5.0611-.5148-11.013-2.2757-16.541-3.2788.92676 1.89 8.5782 2.4515 12.231 3.344.90891-.19603 4.3908 1.0156 4.3099-.0652zm.33606-2.8606c-3.1809-1.9898-8.8823-1.7123-12.984-3.2451-6.7577.73262 9.551 3.8329 7.5526 3.281 1.4974.3239 4.568 1.28 5.4317-.0358zm24.903-4.4864c11.64-.88626 23.92-1.9853 35.422-5.1597 4.3871-1.9685 11.007-1.7372 13.371-6.3769-4.3407-.53587-5.0604 2.5957-10.285 3-18.834 5.9458-39.123 7.4481-58.757 5.5862-9.5297-1.2932-19.147-1.8429-28.504-4.1039-4.7652-.85268-9.1821-3.012-13.891-3.8385 1.8054 3.8718 8.3702 4.0256 12.426 5.5986 16.307 3.5292 32.934 6.3178 49.698 5.7244zm6.7433.43031c-.37265-.70563-.40603.67355 0 0zm-72.584-2.604c-.37263-.70563-.40602.67355 0 0zm47.196-.97648c-.37263-.70564-.40602.67355 0 0zm54.683-.97649c-.37263-.70562-.40602.67356 0 0zm-9.4394-1.6275c-.37263-.70563-.40602.67356 0 0zm18.228-1.6275c-.37265-.70564-.40602.67354 0 0zm-94.719-.97649c-.37265-.70563-.40602.67356 0 0zm.97648 0c-.37265-.70563-.40602.67356 0 0zm99.926-1.302c-.37265-.70564-.40602.67355 0 0zm-107.41-.65097c-.37265-.70563-.40602.67355 0 0zm33.525-1.6275c-.37265-.70563-.40602.67356 0 0zm19.855 0c-.37263-.70563-.40602.67356 0 0zm6.9982-.82959c10.353-1.0431 22.348-.78112 30.764-7.1974-3.6486-.98846-8.4612 2.8413-12.771 3.042-15.837 2.7017-32.207 3.601-48.224 2.258-6.6943-.81156-14.108-3.4375-19.83-5.272 1.5626 3.1621 7.755 4.651 11.794 5.697 12.455 2.8391 25.545 1.9916 38.263 1.4724zm41.825-2.0998c-.37262-.70564-.40602.67354 0 0zm-40.036-.97649c-.37263-.70563-.40602.67355 0 0zm.97647 0c-.37262-.70563-.40601.67355 0 0zm4.2314-.32549c-.37262-.70562-.40602.67356 0 0zm33.852-.97648c-.37262-.70563-.40602.67356 0 0zm-4.2313-.32548c-.37265-.70564-.40602.67355 0 0zm-17.577-.65101c-.37261-.70562-.40601.67356 0 0zm-63.147-.32547c-.37265-.70564-.40602.67354 0 0zm4.8824 0c-.37265-.70564-.40602.67354 0 0zm15.949-1.6275c-.37262-.70564-.40602.67355 0 0zm-25.389-.32549c-.37265-.70564-.40602.67356 0 0zm31.714-.77508c4.817-2.1972-5.8943.051-6.8705-3.6191-1.6901 2.4269 4.6105 5.8816 6.8705 3.6191zm-9.8691-.87149c2.9368-3.0159-5.1766.58431-.21141.10932zm16.889-.30019c-3.07-3.3872-1.8113 2.3304 0 0zm-37.106-.33169c-.37263-.70563-.40602.67355 0 0zm39.711-.32549c-.37262-.70563-.40602.67356 0 0zm32.549 0c-.37262-.70563-.40601.67356 0 0zm-59.9-.40688c-2.4527-5.22-5.5017.32146 0 0zm50.216-.61681c1.5073-2.9585-13.043.80539-3.707.37509 1.2271-.16071 2.5147-.0174 3.707-.37509zm-35.886.0472c-.37263-.70562-.40603.67356 0 0zm13.933-.64149c.76751-14.381-.10414-29.111.0406-43.627-2.853-5.6514 5.3084-.21447-.27375-5.5113-4.6703.40741-1.9325 8.6697-2.753 12.338.42311 12.132-.78685 24.651.79586 36.538.0955 1.1761 2.108 1.732 2.1902.26206zm9.5029.46026c-3.5295-3.3117-5.2662 1.2961 0 0zm-30.01-.37209c1.5184-3.3823-4.7848-4.2584-2.5581-9.237.16925-11.977 2.0873-23.909 2.9487-35.812-3.1199-1.2945-2.3794 7.8184-3.0705 10.588-.44821 11.185-2.1353 22.33-1.4865 33.549.81834 1.4531 2.9204 1.8433 4.1664.91138zm8.3382-2.0007c1.213-14.924.92104-29.917 2.2412-44.835 4.4596 1.9873 1.3464 8.6553 2.3107 12.622.57119 5.4537 1.5264-9.0327 1.4188-7.2226.85667-3.5998-1.5836-10.742-5.8323-6.8202-.64413 10.794-1.6236 21.819-2.2168 32.641-.38861 4.6651-1.5234 9.7966-.20922 14.333.86445.59176 2.5848 1.0533 2.2876-.72074zm-6.32.27554c-.37265-.70563-.40602.67355 0 0zm35.478 0c-.37265-.70563-.40602.67355 0 0zm-8.7883-.32549c-.37265-.70563-.40603.67355 0 0zm1.953-1.0668c-3.1282-10.291-1.0544-21.878-2.3848-32.671.55328-2.9165-2.7175-10.719 1.267-10.354 3.7731-1.7096-6.3464-5.1121-3.5947 1.666 2.5974 12.383.11448 25.667 2.408 37.812.57085.75619.53451 4.9605 2.3045 3.5488zm-40.644-3.4421c.29372-10.062 1.2744-20.896 1.219-30.481-.81998 4.1098-1.3642 7.8704-1.4425 11.965-.37433 6.8378-1.1631 15.252-.39499 21.157 1.0275-.10503.23607-1.9801.61843-2.6404zm10.839-.6175c.45409-8.3318 2.0978-16.904 1.3859-25.144-1.4919 8.6045-2.2379 18.264-1.909 26.529.77264.24189.25232-1.0355.52305-1.3834zm37.646-4.3871c-1.5526-.36362 1.0191 4.9886 0 0zm-1.0065 2.0273c-.37263-.70563-.40602.67355 0 0zm2.2784-1.6275c-.37263-.70563-.40602.67355 0 0zm-2.2784-1.302c-.37263-.70563-.40602.67355 0 0zm-49.801-3.5805c-.37263-.70563-.40602.67355 0 0zm51.048-2.7947c-.7975-10.178-1.4942 7.9212-.0151.55935zm-9.0603-2.7385c-.37262-.70563-.40602.67355 0 0zm-30.596-.97648c-.37263-.70563-.40602.67355 0 0zm7.1608-1.953c-.37263-.70563-.40603.67355 0 0zm-2.9295-.651c-.37263-.70563-.40602.67355 0 0zm-10.607-7.3236c.11075-10.131-2.0855 7.3898-.33559 2.6963.10437-.89963.55676-1.7742.33559-2.6963zm45.599 2.5989c-.6768-9.6655-2.5147 2.1706 0 0zm4.067-.48314c-.37263-.70563-.40602.67355 0 0zm-39.384-4.4325c-.60957-3.5273-.8874 4.175 0 0zm34.497-.53121c-.3098-3.8708-.49818 4.2782 0 0zm-.13245-4.4518c-1.9616-4.7862 1.662-7.1962 1.1369-10.259-6.1958-.54927-.83416 7.9928-1.7383 11.685.74425 4.0158.92055.30413.60134-1.4264zm-46.083 1.9292c-.37265-.70563-.40602.67355 0 0zm1.5275-1.0517c-.43815-1.4633.02133 3.1987 0 0zm36.555.72616c-.37266-.70563-.40603.67355 0 0zm-35.805-2.2784c-.37263-.70563-.40602.67355 0 0zm48.172-.32549c-.37265-.70563-.40603.67355 0 0zm-25.064-2.604c-.37262-.70563-.40602.67355 0 0zm-21.855-3.5112c2.5054-6.3991-3.6242-.08273-1.5356 3.104.78099-.90425 1.1579-1.9914 1.5356-3.104zm8.8306.0334c1.3732-6.0085-7.6136-.6363-2.2544.38569 1.2841.62768 2.3864 2.8469 2.2544-.38569zm.65598-.75355c-.37265-.70563-.40602.67355 0 0zm-11.067-.97648c-.37262-.70563-.40602.67355 0 0zm20.832-.32548c-.37265-.70563-.40602.67355 0 0zm8.4629 0c-.37265-.70563-.40602.67355 0 0zm-28.643-.97648c-.37265-.70563-.40602.67355 0 0zm42.641-.97648c-.37265-.70563-.40602.67355 0 0zm-41.012-.32549c-.37262-.70563-.40602.67355 0 0zm41.664-.32548c-.37263-.70563-.40602.67355 0 0zm-31.247-1.302c-.37265-.70563-.40602.67355 0 0zm-.76297-3.334c.32185-8.9814-2.1829 5.2369-.09431.79622zm-1.5155-4.1522c-.37263-.70563-.40602.67355 0 0zm1.5209-5.8491c.34948-6.0835 1.2411-12.053 2.419-18.212 1.7903-2.1786 2.0074-6.1853 2.888-8.9424 2.9346-.053526 14.101 1.222 9.248-3.0027-5.1988 1.0431-10.667-.8554-15.59-.28489 1.556 2.5899.73724 6.8737-.53541 11.003-.36701 2.4659-1.1648 14.601.69032 6.7651.63715-6.8544 1.8401-8.7254.93735-.68158-.97331 6.3899-.86738 12.619-.98437 18.879 1.7292-1.1526.54014-3.7612.92695-5.5237zm.45773-20.543c.25315-2.0878.25641 2.1224 0 0zm.2998-1.1121c.3032-1.4395.32914 1.3695 0 0zm-2.2785 18.065c-.37265-.70563-.40602.67355 0 0zm-.97648-1.302c-.37262-.70563-.40602.67355 0 0zm34.502-3.5805c-.37265-.70563-.40602.67355 0 0zm-.32548-1.953c-.37265-.70563-.40602.67355 0 0zm-1.953-7.1608c-.37262-.70563-.40602.67355 0 0zm-31.572-10.407c-1.5095-2.4434-5.1773 12.652-1.7217 4.3612.47086-1.4665 1.8513-2.763 1.7217-4.3612zm-5.8589 5.1993c-.37262-.70563-.40602.67355 0 0zm24.087-2.9294c-.37265-.70563-.40602.67355 0 0zm-1.6275-7.4864c-.37263-.70563-.40603.67355 0 0z" style="stroke-width:.24412"/>
  <path d="m184.12 293.57c3.3762-.49647 2.8921 6.0784 4.0531 9.1728 1.2769 5.9085 2.554 11.817 3.8307 17.725 1.4468-5.2391 1.9876-11.106 4.0622-15.91 5.1507-3.5913 3.0718 5.8298 1.3355 9.1413-1.6138 3.03-1.5909 5.576.98093 7.3676 2.6678 3.4096 5.7 6.363 8.0587 10.16.064 7.8492-5.3245 1.8826-6.9218-1.6159-1.556-2.3009-3.112-4.6019-4.6681-6.9028-.83759 3.0212-1.5966 6.0437-.39375 9.0984 2.4717 4.109-.70976 13.03-3.1489 5.7078-2.8333-13.906-5.9841-27.717-8.6192-41.684-.0158-1.1307.70726-1.9822 1.4301-2.2612z" style="stroke-width:.29522;stroke:#000"/>
  <path d="m170.21 313.39c3.2385-1.4698 2.0328 7.6146 4.1161 1.3648 5.5296-5.6587 11.03 3.6225 11.063 11.142.58194 5.638 2.2025 11.242 1.952 16.913-3.748 5.3965-4.6925-3.6425-5.0596-7.4725-1.113-5.2794-.54074-12.332-4.1359-15.668-4.1784.53089-4.3236 7.2584-3.1452 11.559.44373 4.9347 2.0861 9.9186 1.5465 14.823-3.9718 4.5831-4.4108-4.1061-4.9088-7.7843-.98258-7.5875-2.2828-15.121-3.0613-22.743.0505-1.1742.86252-1.9667 1.6336-2.1334z" style="stroke-width:.29522;stroke:#000"/>
  <path d="m55.313 296.74c3.6459 1.4711.91521 7.3988.84163 11.032-1.9604 12.99-3.562 26.111-5.7495 39.018-3.3283 5.0147-3.6904-4.7157-6.5915-.20972-7.1376 1.0843-10.184-12.844-8.0052-20.677 1.2829-7.3768 9.0493-18.899 13.883-9.8598 1.3089 1.4302 1.1691-5.6411 1.8587-7.8456.76317-3.6555.62092-7.8797 2.1356-11.076l.71203-.39442zm-8.0855 41.149c2.144-6.4943 3.4045-23.646-4.9603-17.75-3.9806 5.1156-5.1448 23.017 2.7808 19.888.78907-.57979 1.5041-1.3332 2.1796-2.1375zm13.199-23.713c3.0737 1.4254.48993 6.7094 4.3229 2.6531 3.8969-1.6559 10.923 8.5718 4.4576 9.4919-3.2087-6.0498-9.1853-1.7411-8.6096 4.9354-.77274 5.6538-1.1594 11.437-2.1914 17.004-4.4904 4.995-4.4213-4.3895-3.3242-8.3531 1.1056-8.1519 1.8797-16.416 3.1936-24.498.36147-1.1123 1.3594-1.4659 2.1511-1.2338zm20.251-9.176c8.595 5.52-6.7973 12.062-2.0469.91733.54024-.70463 1.3115-1.0458 2.0469-.91733zm-1.5872 14.222c3.3877 1.9094.99477 7.9998 1.0864 11.884-.71337 6.8278-1.1183 13.732-2.0438 20.507-4.029 6.3025-4.8841-4.039-3.6894-8.2574.79212-7.3834 1.2425-14.856 2.2714-22.178.29221-1.3576 1.3689-2.2723 2.3753-1.9558zm11.371-13.876c5.2662 1.2344-1.8645 15.042 3.7499 14.131 5.781-1.8714 5.3941 9.541-.56204 6.3523-3.4069-1.3005-1.6346 5.4834-2.3551 8.3763-.41325 6.3745-.44772 12.822-1.1099 19.148-4.2487 5.636-5.4871-3.5954-4.3104-8.0794.50252-6.6262 1.005-13.252 1.5076-19.878-2.801-.3644-4.4286-2.3656-3.7155-4.2621.61601-1.6383 3.5346-1.7308 4.3141-2.0904.40575-3.8432-.29792-9.5429.89085-13.07l.67348-.50641zm22.189 42.02c6.9921-1.9716 1.0122 10.1-3.3835 8.2474-8.0836-.18983-11.255-14.815-8.5557-23.944 1.2212-9.0073 9.2317-15.162 14.097-7.0041 2.4527 8.0072-4.2421 3.0022-6.6237 1.8047-5.6512 3.7421-5.7727 18.277-.89641 23.137 1.9248.84862 3.8676-.69259 5.3621-2.2411zm7.1115-45.021c3.507.52947 2.0009 6.9499 2.6365 10.431.18753 3.7321.37507 7.4645.56261 11.197 3.0017-7.9019 11.843-3.8534 12.085 4.5248.77464 7.4586 1.142 15.045 1.3137 22.574-3.0854 7.1991-5.3946-2.1189-4.8495-6.6196-.61276-5.6983.22654-12.167-2.2878-17.077-4.4469-2.1332-6.5102 5.9338-5.5181 10.884-.0774 5.1046 1.0863 10.504.004 15.38-4.4386 3.9145-4.1332-4.8795-4.247-8.7088-.48794-13.555-1.3205-27.114-1.5909-40.666.17503-1.1968 1.0799-1.866 1.8914-1.9175zm29.221.59336c5.077-.62585 10.138-1.7639 15.226-2.0395 5.1419 4.6444-1.9171 7.5634-5.178 7.1447-2.112.49425-.11323 5.6592-.47411 8.1431.59788 9.1328 1.1958 18.265 1.7936 27.398 2.7439.10339 6.1367-2.3066 8.2986.70617 1.4867 6.2715-4.6615 4.9493-7.4276 5.7578-3.7394.16588-7.6068 2.0245-11.246.76542-3.6467-6.4555 4.0077-5.6087 5.8904-7.07-.67926-11.643-1.3585-23.287-2.0378-34.931-2.8792.72205-9.4682 1.9154-7.0888-4.787l.91574-.70297z" style="stroke-width:.29522;stroke:#000"/>
  <path d="m35.134 292.84c3.4685 1.8245.46812 7.3822.23437 10.949-2.4873 12.231-4.6334 24.622-7.3356 36.752-4.7555 4.2323-3.9733-4.9532-2.6519-8.6741 2.5855-12.676 4.8629-25.501 7.6417-38.083.41435-1.0023 1.3704-1.2386 2.1113-.94344z" style="stroke-width:.29522;stroke:#000"/>
  <path d="m18.726 290.37c3.8793 2.2813 8.3484 3.175 11.734 6.635.50545 11.857-11.469-5.2161-13.167 1.7876-1.2986 4.7772-2.5972 9.5544-3.8957 14.332 2.9683 1.7779 6.4628 2.3437 8.9482 5.2635 1.1688 7.3292-5.0958 3.0459-7.7149 1.7912-2.5721-2.5577-3.54-.18689-4.1481 3.2902-1.9581 3.5549-.38366 4.9068 2.2698 5.586 2.4861 1.8145 7.5463 1.7205 6.9638 6.9972-2.1341 3.7612-5.8125-.64921-8.5506-1.3097-2.2111-1.4061-5.0172-1.6488-6.6926-4.1825.51961-5.636 2.8069-10.86 4.0834-16.318 2.3322-7.9915 4.3742-16.175 6.8886-24.046.92915-1.5416 2.236-.20476 3.2815.17377z" style="stroke-width:.29522;stroke:#000"/>
 </g>
</svg>
