<?xml version="1.0" encoding="utf-8"?>
<svg version="1.1" viewBox="0 0 901 1529" xmlns="http://www.w3.org/2000/svg">
 <path d="m753.06 1204.3c13.83-2.0337 11.847 24.899 16.603 37.575 5.2308 24.203 10.462 48.406 15.692 72.608 5.9266-21.461 8.1417-45.494 16.64-65.173 21.099-14.711 12.583 23.881 5.4706 37.446-6.6106 12.412-6.5168 22.841 4.0182 30.18 10.928 13.967 23.349 26.065 33.011 41.619.26227 32.153-21.811 7.7117-28.354-6.6193-6.3739-9.4252-12.748-18.851-19.122-28.276-3.431 12.376-6.5402 24.757-1.6129 37.27 10.125 16.832-2.9074 53.375-12.899 23.381-11.606-56.964-24.513-113.54-35.307-170.75-.0646-4.6317 2.8972-8.1199 5.858-9.2627z" style="stroke-width:1.2093;stroke:#000"/>
 <path d="m696.1 1285.5c13.266-6.0208 8.3272 31.192 16.861 5.5906 22.651-23.18 45.184 14.839 45.316 45.641 2.3838 23.095 9.0221 46.05 7.9962 69.28-15.353 22.106-19.222-14.921-20.726-30.61-4.559-21.626-2.215-50.515-16.942-64.18-17.116 2.1747-17.711 29.733-12.884 47.348 1.8177 20.214 8.5455 40.63 6.3351 60.72-16.27 18.774-18.068-16.82-20.108-31.887-4.025-31.081-9.3512-61.939-12.54-93.164.20715-4.8098 3.5332-8.0563 6.6916-8.7392z" style="stroke-width:1.2093;stroke:#000"/>
 <path d="m225.43 1217.3c14.935 6.0263 3.749 30.308 3.4476 45.189-8.0305 53.21-14.591 106.96-23.552 159.83-13.634 20.542-15.117-19.317-27.001-.8591-29.238 4.4415-41.716-52.614-32.792-84.701 5.2553-30.218 37.069-77.416 56.869-40.389 5.3618 5.8586 4.789-23.108 7.6137-32.138 3.1262-14.974 2.5435-32.278 8.7482-45.372l2.9167-1.6157zm-33.121 168.56c8.7826-26.603 13.946-96.864-20.319-72.712-16.306 20.955-21.075 94.286 11.391 81.467 3.2323-2.375 6.1613-5.4614 8.9282-8.7559zm54.066-97.138c12.591 5.8391 2.0069 27.484 17.708 10.868 15.963-6.7832 44.744 35.113 18.26 38.882-13.144-24.782-37.626-7.1322-35.268 20.217-3.1654 23.16-4.7494 46.85-8.9767 69.654-18.394 20.461-18.111-17.981-13.617-34.217 4.5289-33.393 7.6997-67.246 13.082-100.35 1.4807-4.5564 5.5686-6.0048 8.8118-5.054zm82.954-37.588c35.208 22.612-27.844 49.412-8.3847 3.7577 2.213-2.8864 5.3724-4.2838 8.3847-3.7577zm-6.5018 58.258c13.877 7.8214 4.0749 32.77 4.4504 48.681-2.9222 27.969-4.581 56.251-8.3721 84.004-16.504 25.817-20.007-16.545-15.113-33.825 3.2448-30.245 5.0898-60.857 9.3046-90.848 1.197-5.5614 5.6074-9.3082 9.73-8.0117zm46.579-56.842c21.572 5.0565-7.6378 61.619 15.361 57.884 23.681-7.6661 22.096 39.083-2.3023 26.021-13.956-5.3271-6.696 22.462-9.6471 34.312-1.6928 26.112-1.834 52.523-4.5466 78.438-17.404 23.087-22.477-14.728-17.657-33.096 2.0585-27.143 4.117-54.285 6.1755-81.428-11.474-1.4927-18.141-9.6902-15.22-17.459 2.5234-6.7109 14.479-7.09 17.672-8.5632 1.6621-15.743-1.2204-39.091 3.6492-53.538l2.7588-2.0744zm90.894 172.13c28.642-8.0763 4.1463 41.374-13.86 33.784-33.113-.7776-46.103-60.686-35.047-98.082 5.0023-36.897 37.816-62.109 57.748-28.691 10.047 32.8-17.377 12.298-27.133 7.3925-23.149 15.329-23.647 74.867-3.672 94.777 7.8846 3.4762 15.843-2.8371 21.965-9.1804zm29.131-184.42c14.366 2.1689 8.1962 28.469 10.8 42.728.76818 15.288 1.5364 30.577 2.3046 45.865 12.296-32.369 48.513-15.785 49.504 18.535 3.1732 30.553 4.6778 61.629 5.3814 92.472-12.639 29.49-22.098-8.6797-19.865-27.116-2.5101-23.342.92797-49.839-9.3717-69.955-18.216-8.7385-26.668 24.307-22.604 44.583-.31721 20.91 4.45 43.028.0162 63-18.182 16.035-16.931-19.988-17.397-35.674-1.9988-55.525-5.4092-111.07-6.5169-166.58.71702-4.9023 4.4236-7.6437 7.7478-7.8546zm119.7 2.4306c20.797-2.5637 41.529-7.2255 62.371-8.3543 21.063 19.025-7.853 30.982-21.211 29.267-8.6516 2.0246-.46385 23.182-1.9421 33.357 2.4491 37.411 4.8982 74.821 7.3473 112.23 11.24.4235 25.138-9.4486 33.994 2.8927 6.09 25.69-19.095 20.274-30.426 23.586-15.318.6795-31.16 8.2931-46.068 3.1354-14.938-26.444 16.417-22.975 24.129-28.961-2.7825-47.695-5.565-95.391-8.3476-143.09-11.794 2.9578-38.785 7.8462-29.038-19.609l3.7512-2.8796z" style="stroke-width:1.2093;stroke:#000"/>
 <path d="m142.77 1201.3c14.208 7.4736 1.9176 30.24.96007 44.851-10.189 50.102-18.98 100.86-30.049 150.55-19.48 17.337-16.276-20.29-10.863-35.532 10.591-51.926 19.92-104.46 31.303-156 1.6973-4.1059 5.6138-5.0737 8.6484-3.8647z" style="stroke-width:1.2093;stroke:#000"/>
 <path d="m75.558 1191.2c15.891 9.345 34.198 13.006 48.065 27.179 2.0705 48.572-46.979-21.367-53.937 7.3226-5.3193 19.569-10.639 39.138-15.958 58.707 12.159 7.283 26.474 9.6004 36.655 21.561 4.7879 30.023-20.874 12.477-31.603 7.3375-10.536-10.477-14.501-.7655-16.992 13.478-8.021 14.562-1.5716 20.1 9.2979 22.882 10.184 7.4329 30.912 7.0479 28.526 28.663-8.7418 15.407-23.81-2.6594-35.026-5.365-9.0576-5.76-20.552-6.7541-27.415-17.133 2.1285-23.087 11.498-44.488 16.727-66.842 9.5533-32.736 17.918-66.259 28.218-98.502 3.8061-6.3151 9.1595-.8388 13.442.7118z" style="stroke-width:1.2093;stroke:#000"/>
 <path d="m389.33 1527.3c-71.494-1.0292-142.6-8.6324-212.16-25.521-35.57-5.4723-68.207-20.27-102.31-31.158-26.235-13.457-58.17-25.433-72.541-52.639-3.587-48.087-1.4715-95.961.4089-143.98.41673-44.721 2.1258-89.487 5.7714-133.77.77419-43.694-8.2224-91.234 19.686-129.06 37.142-61.444 104.32-98.387 173.14-112.66 11.729-11.652 22.488-27.038 40.032-32.193 3.2488-85.071-.20141-170.95.47274-256.34-9.9127-15.364-2.0105-39.069-10.411-52.122-18.544-4.3615-32.984-18.966-26.46-38.89 5.5794-17.474-1.187-42.583 17.701-52.822.89907-13.645 17.262-20.529 31.804-28.021 16.134-5.4054 32.181-9.0343 44.052-20.567 16.256-2.2832 31.103-9.1814 28.655-28.438 8.1883-59.738 5.4732-122.08 23.052-179.82 12.136-20.956 9.5719-48.631 12.409-72.637 3.4005-39.245 2.4656-83.479 27.343-116.24 16.938-12.278 34.891-23.239 57.109-20.352 38.048-4.8461 79.761 18.567 83.234 59.483 14.622 45.767 11.357 94.872 15.153 141.63 22.399 42.099 12.502 92.078 20.708 137.63 3.6285 20.842-2.1324 46.735 9.8645 64.024 18.672 6.996 32.29 23.185 51.168 28.182 27.259 7.3489 57.701 19.054 66.127 49.623-2.7303 19.847 8.2608 43.684-3.0875 60.426-10.853 13.616-39.997 9.1947-35.118 30.2-1.6831 24.306-8.7648 47.23-4.7155 71.96 5.4516 71.86-1.3996 144.65 5.7523 216.4 21.227 6.4287 37.815 21.42 51.406 38.801 57.486 15.941 118.31 39.821 152.7 91.475 17.691 32.372 25.472 69.411 34.858 104.03 2.7721 61.916-.55913 122.64 2.8227 183.38-.68428 42.844 5.2543 86.186-.98201 128.67-9.2999 20.312-28.689 34.431-48.314 43.33-46.634 25.218-98.66 38.263-150 51.362-50.187 11.218-103.86 21.66-153.58 22.051-49.228 8.171-104.69 6.361-155.75 4.5746zm-117.33-10.651c-1.5265-2.8906-1.6631 2.7592 0 0zm317.33 0c-1.5265-2.8906-1.6631 2.7592 0 0zm-84.667-2.0585c92.509-3.7849 183.79-21.262 272.39-47.914 38.672-15.343 83.814-25.977 109.33-61.172 3.851-14.412 6.4366-37.235-6.8281-20.981-49.676 36.45-111.13 55.31-170.74 69.356-68.103 10.604-136.11 23.58-205.5 22.958-110.87 6.9436-222.54-3.1249-331.33-24.264-29.632-8.7083-59.704-14.99-88.667-24.928-24.48-9.6423-47.457-25.589-69.755-36.482-4.1027 17.028.98517 37.731 19.299 45.51 71.721 45.956 159.19 56.262 241.47 69.974 75.262 9.8949 153.67 10.993 230.32 7.9409zm66-1.9415c-1.5265-2.8906-1.6631 2.7592 0 0zm21.333 0c-1.5265-2.8906-1.6632 2.7592 0 0zm-318.67-1.3333c-1.5263-2.8906-1.6634 2.759 0 0zm334.67 0c-1.5263-2.8906-1.6634 2.759 0 0zm-368-4c-1.5263-2.8906-1.6633 2.759 0 0zm-29.333-1.3334c-1.5266-2.8903-1.663 2.7591 0 0zm-17.333-5.3333c-1.5265-2.8906-1.6631 2.7592 0 0zm470.67-1.3333c-1.5263-2.8906-1.6634 2.759 0 0zm-477.33-2.6667c-1.5265-2.8906-1.6631 2.7592 0 0zm-12-5.3333c-1.5263-2.8906-1.6633 2.759 0 0zm534.67 0c-1.5263-2.8906-1.6634 2.759 0 0zm53.333-12c-1.5263-2.8906-1.6633 2.759 0 0zm-657.33-5.3334c-1.5266-2.8903-1.663 2.7591 0 0zm412.87-4.59c68.286-1.3133 135.36-12.546 201.79-27.306 46.161-10.896 94.212-23.704 133.43-50.94-2.8985-80.003 2.089-160.41-3.4607-240.16-16.461 1.5736-35.536 16.528-54.762 18.811-89.722 25.271-182.93 38.28-275.83 43.973-40.515 2.4001-79.99.7556-120.26-1.0637-59.863-1.1302-119.82-4.8027-178.65-15.626-51.197-6.8942-101.18-19.298-150.47-33.495-20.576-5.7464-38.783-21.755-56.353-29.688-1.9434 28.547-3.1072 58.868 3.6625 86.754 5.2574 15.371-11.506 27.44-5.8839 45.113 3.4661 26.682-1.9474 54.824-.15777 82.568 2.7143 14.881-4.3916 33.6 13.48 42.326 24.857 22.005 59.33 28.248 87.986 39.528 131.36 37.239 269.58 45.641 405.48 39.206zm-195.54.59c-1.5266-2.8903-1.663 2.7591 0 0zm241.33 0c-1.5266-2.8903-1.663 2.7591 0 0zm-281.33-5.3333c-1.5265-2.8906-1.6631 2.7592 0 0zm532-1.3333c-1.5263-2.8906-1.6634 2.759 0 0zm-584-4c-1.5263-2.8906-1.6633 2.759 0 0zm408 0c-1.5263-2.8906-1.6633 2.759 0 0zm-421.33-2.6667c-1.5265-2.8906-1.6631 2.7592 0 0zm478.67-4c-1.5265-2.8906-1.6631 2.7592 0 0zm149.33-8c-1.5265-2.8906-1.6631 2.7592 0 0zm-832-21.333c-1.5263-2.8906-1.6633 2.759 0 0zm821.33-13.333c-1.5266-2.8903-1.663 2.7591 0 0zm11.333-8.6666c1.7309-5.2709-4.3554 4.9773 0 0zm32.263-27.469c24.353-18.057 6.8832-51.492 11.2-76.729-1.0734-56.782 1.7561-117.74-3.3332-171.8-13.281 10.202-35.559 19.435-29.713 40.644 3.6645 73.489-1.6297 147.7 4.8689 220.78 7.0293-2.7031 12.108-7.2359 16.978-12.896zm-872.93-5.1976c-1.5265-2.8906-1.6632 2.7592 0 0zm0-38.667c-1.5266-2.8903-1.663 2.7591 0 0zm888-77.333c-1.5265-2.8906-1.6631 2.7592 0 0zm-430.67-42.667c-1.5266-2.8903-1.663 2.7591 0 0zm-122.67-2.6666c-1.5263-2.8906-1.6633 2.759 0 0zm228 0c-1.5263-2.8906-1.6634 2.759 0 0zm-68-2.4872c90.716-.7789 180.79-15.84 269.33-34.669 39.339-12.473 81.793-23.76 113.44-51.835 5.9264-9.6227 11.97-46.116-2.9257-30.949-47.405 34.591-107.7 44.02-162.93 58.981-77.925 13.97-156.9 23.102-236.23 24.75-121.6.5017-244.24-3.0027-362.87-32.709-35.881-11.114-74.462-21.993-100.75-50.527-6.5248 13.14-8.1995 38.521 8.4856 47.584 62.316 35.55 135.08 42.672 204.85 54.65 61.535 8.3847 123.98 12.784 185.6 16.182 27.423.7133 56.175-.348 84-1.4573zm85.333-1.5128c-1.5263-2.8906-1.6633 2.759 0 0zm28-1.3334c-1.5266-2.8903-1.663 2.7591 0 0zm53.333-9.3333c-1.5265-2.8906-1.6631 2.7592 0 0zm-470.67-4c-1.5265-2.8906-1.6632 2.7592 0 0zm-32-6.6667c-1.5266-2.8903-1.663 2.7591 0 0zm577.33-1.3333c-1.5265-2.8906-1.6632 2.7592 0 0zm-616-5.3333c-1.5263-2.8906-1.6633 2.759 0 0zm688-14.667c-1.5265-2.8906-1.6631 2.7592 0 0zm-189.33-4c-1.5265-2.8906-1.6632 2.7592 0 0zm200.67-.6667c1.7308-5.2707-4.3553 4.9775 0 0zm-122-12.667c-1.5263-2.8906-1.6633 2.759 0 0zm42.667-8c-1.5263-2.8906-1.6634 2.759 0 0zm16-2.6667c-1.5265-2.8906-1.6632 2.7592 0 0zm114.67-4c-1.5265-2.8906-1.6631 2.7592 0 0zm-88-4c-1.5265-2.8906-1.6631 2.7592 0 0zm6.6667-8c-1.5265-2.8906-1.6631 2.7592 0 0zm1.5989-10.342c23.165-15.172.89222-44.91-9.4337-61.84-19.425-32.178-52.868-55.713-89.222-63.151-15.151 8.2865-57.818 29.117-53.491 22.685 48.659 7.5916 86.286 43.684 116.46 79.818 11.799 11.409 16.086 43.003 35.683 22.487zm-14.835-47.171c-10.799-21.242 12.239 13.603 0 0zm-10.835-15.487c-13.978-20.755-32.758-34.408-54.779-47 25.545 6.1549 47.519 29.914 61.611 52.667-4.1104 1.3032-4.4584-3.6001-6.8323-5.6667zm-9.9435 1.1041c-10.375-14.206-24.585-25.526-37.985-35.473 17.026 6.61 32.99 24.572 40.636 38.511l-2.334-2.6741zm-20.126-3.7708c-21.219-22.746 16.936 8.3375 1.591 1.7246zm-28.081-47.222c6.1329-1.7956-1.7312 3.9368 0 0zm98.222 110.89c-1.5265-2.8906-1.6631 2.7592 0 0zm-786.67-14.667c-1.5266-2.8903-1.663 2.7591 0 0zm845.33 0c-1.5266-2.8903-1.663 2.7591 0 0zm-824-5.3333c-1.5265-2.8906-1.6632 2.7592 0 0zm708 0c-1.5265-2.8906-1.6632 2.7592 0 0zm-702.82-5.9203c26.913-37.854 70.056-62.454 113.06-79.114 65.295-18.528 133.42-2.5341 199.65 1.6225 51.901 9.2556 107.21 9.0125 158.1 1.3466-38.412-4.7131-80.342 3.7113-120.38-1.1474-27.343-5.25 10.136-5.8702 19.644-1.4621 44.409-4.8817 89.677-2.7821 133.4-13.344 55.063-8.767 113.92-20.153 155.82-59.312-16.478 4.6704-31.135 21.201-49.389 26.61-43.608 19.608-92.172 25.26-138.86 34.094-55.878 3.5644-111.96 6.5985-167.57-2.6143-55.462-10.682-115.69-19.434-161.6-54.872-.23295-33.132-10.591 17.497 14.542 16.75 16.534 6.5216 19.922 24.436-6.2272 15.596-45.513-6.3457-84.396 22.211-117.89 49.085-11.862 16.25-27.343 13.892-15.163-8.96 18.424-29.006 46.465-50.748 77.424-69.673 10.535-4.7072 34.894-19.513 11.164-11.971-22.584 5.2824-39.871 19.525-58.921 30.624-20.798 17.349-44.065 30.604-53.772 56.664-17.267 15.489-25.401 42.993-14.19 64.256 8.0325-.5963 13.915 10.235 21.147 5.8239zm24.149-36.986c38.199-45.256 101.13-68.012 160.45-63.57 13.44-1.2174 57.609 7.6821 22.554 7.7465-64.768-5.1403-135.06 10.673-183 57.194zm-50.667 26.906c-1.5265-2.8906-1.6632 2.7592 0 0zm53.333-14.667c-1.5266-2.8903-1.663 2.7591 0 0zm644-1.3333c-1.5265-2.8906-1.6632 2.7592 0 0zm-705.33-4c-1.5265-2.8906-1.6632 2.7592 0 0zm690.67-5.3333c-1.5263-2.8906-1.6633 2.759 0 0zm-574.67-24c-1.5263-2.8906-1.6634 2.759 0 0zm645.33-4c-1.5263-2.8906-1.6634 2.759 0 0zm-694.67-8c-1.5263-2.8906-1.6634 2.759 0 0zm684-2.6667c-1.5265-2.8906-1.6631 2.7592 0 0zm-377.33-20c-1.5265-2.8905-1.6632 2.7591 0 0zm341.33 0c-1.5265-2.8905-1.6632 2.7591 0 0zm-610.67-12c-1.5265-2.8905-1.6632 2.7591 0 0zm188 0c-1.5265-2.8905-1.6632 2.7591 0 0zm-241.33-4c-1.5264-2.8905-1.6632 2.7591 0 0zm772 0c-1.5264-2.8905-1.6632 2.7591 0 0zm-437.33-3.1864c-16.699-2.1442-36.859-4.5047-54.637-8.4501 8.1804-6.3963 50.499 6.3269 43.112-3.5341-10.285-.43196-61.783-6.636-35.355-10.201 53.344 13.17 108.62 7.1403 162.21-1.2684-42.137-2.3314-85.313 9.4698-127.41-.82773 13.766-2.5968 32.247 3.9774 48.271-1.5585 39.366-6.6741 82.015-.30043 119.14-14.473-51.969-.37482-106.31 16.493-156.67 3.3951 22.207-1.2081 47.261 3.7769 67.821-1.0135-5.1455-6.5497-34.319.90894-47.911-4.9915-50.094 2.2363-102.81 2.3758-148.58-17.891 1.1717 18.813 27.886 17.28 42.779 21.388 24.957 5.9566-21.595 3.303-29.609-2.4059-20.514-7.095-30.757-8.0223-15.765 4.0576 4.7214 5.898 48.01 7.6217 32.839 9.2487-24.32 2.0984-47.133-16.658-69.94-15.24 18.085 14.087 40.179 21.452 62.363 26.272-31.274-4.1323 6.7693 9.7648 18.456 9.979 28.89 5.8239 61.13 10.942 88.878 7.5151zm-106.22-17.036c6.1329-1.7956-1.7312 3.9368 0 0zm18.222-9.7778c-14.434-4.1599 17.594 2.2309 0 0zm340 26c-1.5264-2.8905-1.6632 2.7591 0 0zm-370.67-1.3333c-1.5265-2.8905-1.6632 2.7591 0 0zm-120-1.3333c-1.5264-2.8905-1.6632 2.7591 0 0zm48 0c-1.5264-2.8905-1.6632 2.7591 0 0zm58.667 0c-1.5265-2.8905-1.6632 2.7591 0 0zm-54.667-4c-1.5264-2.8905-1.6632 2.7591 0 0zm181.33-1.3333c-1.5264-2.8905-1.6632 2.7591 0 0zm57.333 0c-1.5264-2.8905-1.6632 2.7591 0 0zm-202.67-4c-1.5264-2.8905-1.6632 2.7591 0 0zm-156-1.3333c-1.5265-2.8905-1.6632 2.7591 0 0zm164-4c-1.5265-2.8905-1.6632 2.7591 0 0zm444 0c-1.5265-2.8905-1.6632 2.7591 0 0zm-169.33-7.3333c-10.29-3.8082-16.028 5.0564 0 0zm5.3333-3.3333c-1.5264-2.8905-1.6632 2.7591 0 0zm246.67-1.3333c-1.5265-2.8905-1.6632 2.7591 0 0zm-632-1.3333c-1.5264-2.8905-1.6632 2.7591 0 0zm89.333 0c-1.5264-2.8905-1.6632 2.7591 0 0zm442.67-4c-1.5265-2.8905-1.6632 2.7591 0 0zm-169.33-5.395c23.405-1.3031 55.56-4.0244 71.843-13.938 23.743-9.6881-14.696-1.0166-24.016 1.7348-24.377 6.6149-50.408 3.9817-74.493 10.208-1.4899 9.4028 20.513.43619 26.667 1.9955zm-165.33-5.2717c-1.5265-2.8905-1.6632 2.7591 0 0zm76.628-3.8072c9.2961-11.808-54.043-3.8836-28.863-12.193 12.666 1.7132 45.189.17513 23.223-10.395 24.923-13.312-20.223-13-31.655-14.325-28.2-8.5654 25.547-17.291 23.011-10.813-2.3937-16.242-30.493-5.258-42.684-13.328 9.4626-10.735 49.002 9.437 38.673-14.082-17.541.46182-48.272-8.3726-12.725-6.7433 31.054-2.9472-8.4334-16.765-23.134-12.765-29.497-13.234-25.769 14.156-24.475 34.835 4.9436 17.677-11.106 51.825 10.143 56.777 22.055 3.9924 47.034 5.2022 68.486 3.0321zm-193.44-4.7061c14.867-19.708-20.738 16.693-.0982.10054zm10.15 4.5133c-1.5265-2.8905-1.6632 2.7591 0 0zm81.333-1.3333c-1.5265-2.8905-1.6632 2.7591 0 0zm388.16-1c-1.3973-24.468-10.679 8.4895 0 0zm-277.49-.33333c-1.5264-2.8905-1.6632 2.7591 0 0zm302.67-1.3333c-1.5265-2.8905-1.6632 2.7591 0 0zm-188-1.3333c-1.5264-2.8905-1.6632 2.7591 0 0zm-229.32-6.3333c4.3789-30.419-4.1328-8.6757-2.1542 4.3333 3.6814 1.5268 1.9501-2.3736 2.1542-4.3333zm-8.9363-2c-.0624-17.411-11.487 15.066-.036.18366zm123.59 3c-1.5264-2.8905-1.6632 2.7591 0 0zm282.67 0c-1.5264-2.8905-1.6632 2.7591 0 0zm-12-4c-1.5264-2.8905-1.6632 2.7591 0 0zm-476-1.3333c-1.5264-2.8905-1.6632 2.7591 0 0zm52 0c-1.5264-2.8905-1.6632 2.7591 0 0zm-41.333-8c-1.5264-2.8905-1.6632 2.7591 0 0zm5.3333-1.4966c-2.958-6.5769-5.0142 9.3957 0 0zm28.493-4.8367c2.2236-29.749.41045-59.828-2.0859-89.539-7.124 26.491.15372 61.892-4.2676 85.668-2.485 7.45 5.7939 16.631 6.3536 3.8705zm36.431.69205c-1.7948-5.9942.0874 13.103 0 0zm125.74 1.6413c-1.5264-2.8905-1.6632 2.7591 0 0zm-114.53-9.0618c-3.4425 10.645-1.9038 5.5837 0 0zm369.2 5.0618c-1.5264-2.8905-1.6632 2.7591 0 0zm-369.73-18.333c-1.9989-6.7288.75157 19.944 0 0zm108.14 4.2814c11.176-14.577-29.211-5.4389-9.6162 2.7186 3.5022-.40062 7.6429 1.5552 9.6162-2.7186zm238.92.7186c-1.5265-2.8905-1.6632 2.7591 0 0zm-39.985-41.333c-1.3582-65.329-1.2911-130.66-.82061-196-18.395 4.1414-2.0257 36.353-6.8953 52.413 1.2469 59.292-.3768 118.85 4.0627 177.93 6.597-10.503 2.8456-22.669 3.6532-34.347zm-306.68 28.588c-2.6589-9.217-3.0002 10.282 0 0zm70.667-1.9213c-1.5264-2.8905-1.6632 2.7591 0 0zm20 0c-1.5264-2.8905-1.6632 2.7591 0 0zm18.41-9c-14.488-26.209-16.082 23.822 0 0zm-7.7433-9.6667c-1.5265-2.8905-1.6632 2.7591 0 0zm-73.333-21.333c-1.5264-2.8905-1.6632 2.7591 0 0zm77.2-39c9.0483-31.003-22.808-23.895-42.989-25.352-17.144-1.0233-43.104-8.8287-55.09.023-15.955 17.526-6.1191 25.303 17.095 21.024 23.919-2.6903 48.221-7.8351 72.451-4.6952-1.9832 16.574 9.4224 45.056 8.5338 9zm4.1329 16.333c-1.5265-2.8905-1.6632 2.7591 0 0zm-156.88-16.738c.93067-19.56-3.8769-37.342.8573-55.68-1.431-17.243.8676-37.018-5.2212-52.688-11.689 31.303-2.3163 66.876-4.8114 100.01 4.7374 8.1532 8.7126 34.519 9.1752 8.3598zm91.542-3.2616c-1.5264-2.8905-1.6632 2.7591 0 0zm-104-1.3333c-1.5265-2.8905-1.6632 2.7591 0 0zm329.33-8.8385c16.903-3.3464 8.0828-38.867-11.666-24.083-28.433 6.6176-57.589 5.6113-86.334 10.254-4.0922 25.693 35.294 9.247 51.821 14.956 15.239.5753 31.187 2.7604 46.179-1.1278zm-188-13.828c-1.5264-2.8905-1.6632 2.7591 0 0zm-2.1675-3.3802c40.829 1.3989 84.056-.87328 123.98-9.2348-10.544-8.5998-37.517 4.6547-51.148-3.0449 1.8829-18.816-7.8181-26.246-3.6223-44.48 4.8645-20.863-7.8456-44.134-6.0901-10.1 7.7653 25.654-11.134 40.94-7.5409 6.2855 3.2008-29.698-5.7795-28.808-3.5325.17086 6.8372 21.907-13.151 38.606-9.8743 6.8084 2.5926-22.389-8.3805-48.525-5.8927-10.472 2.557 10.528.90319 51.237-7.2836 24.237-5.8696-13.181 7.8153-45.913-10.164-46.123-.50028 19.954 9.206 45.692-2.6336 62-5.1487-18.531-2.1503-45.297-8.7936-65.333-13.81 9.4057-.24953 33.26-7.04 48.181.93849 14.825-5.8455 47.832-4.6016 15.152-2.2264-20.948.68904-43.078-4.5499-63.333-9.0087 2.7367-.27708 28.975-5.6886 41.956 1.1464 12.689-6.5009 48.702 8.6587 45.703l3.418.95699zm-5.8325-7.2864c1.5264-2.8905 1.6632 2.7591 0 0zm64-41.333c-1.5264-2.8905-1.6632 2.7591 0 0zm-8-9.3333c-1.5264-2.8905-1.6632 2.7591 0 0zm-189.33-8c-1.5264-2.8905-1.6632 2.7591 0 0zm222.67-16.966c-10.03-18.573-6.352 25.181 0 0zm-217.35 3.966c-1.8681-9.8183-1.8341 10.637 0 0zm194.69-.33334c-1.5265-2.8905-1.6632 2.7591 0 0zm-44-1.3333c-1.5265-2.8905-1.6632 2.7591 0 0zm79.333-4.6667c-5.5138-14.112-4.5742 13.984 0 0zm-230 0c-3.6679-6.2331-1.993 5.3004 0 0zm5.3333-5.412c-2.6589-9.217-3.0002 10.282 0 0zm150.67.74536c-1.5264-2.8905-1.6632 2.7591 0 0zm-22.667-1.3333c-1.5264-2.8905-1.6632 2.7591 0 0zm34.667-1.3333c-1.5265-2.8905-1.6632 2.7591 0 0zm210.67-9.3333c-1.5264-2.8905-1.6632 2.7591 0 0zm-274.03-7.2671c8.9621-17.622-8.637-45.821-3.3182-13.183.96949 2.7337-2.5202 26.39 3.3182 13.183zm18.034-6.1424c.89048-31.958-11.866-17.61-5.4411 5.4109.56071 11.789 8.7467 1.3349 5.4411-5.4109zm-29.839-8.8421c-.9931-37.227-10.958-5.103-7.4875 13.556 6.1014 14.146 11.11-4.3464 7.4875-13.556zm-17.438 7.7263c-1.6322-24.652-7.3058-40-5.7606-5.4381-4.9303 9.5665 7.0893 19.679 5.7606 5.4381zm35.277 3.8587c-1.5265-2.8905-1.6632 2.7591 0 0zm268-28c-1.5265-2.8905-1.6632 2.7591 0 0zm-277.33-4c-1.5265-2.8905-1.6632 2.7591 0 0zm28-16c-1.5264-2.8905-1.6632 2.7591 0 0zm94.667-2.0111c48.701-2.1922 96.962-10.295 144-21.827-12.559-6.0021-35.263 5.52-51.205 6.8934-36.836 8.108-74.317 7.0066-111.56 8.569-20.4 6.6306-46.678-2.2831-69.399-1.4048-51.9-.0689-102.58-13.986-153.2-22.143-25.749-9.2198-15.406 4.6654 4.1718 6.5298 54.104 13.358 109.54 21.7 165.04 24.727 12.731-4.1026 33.237 4.2537 49.037.33929 7.7446-.16077 15.436-.70111 23.12-1.6836zm-149.33.67775c-1.5265-2.8905-1.6632 2.7591 0 0zm208-1.3333c-1.5264-2.8905-1.6632 2.7591 0 0zm49.333-8c-1.5265-2.8905-1.6632 2.7591 0 0zm-316-1.3333c-1.5264-2.8905-1.6632 2.7591 0 0zm105.33-4c-1.5264-2.8905-1.6632 2.7591 0 0zm114.67 0c-1.5264-2.8905-1.6632 2.7591 0 0zm14.667 0c-1.5264-2.8905-1.6632 2.7591 0 0zm21.333 0c-1.5264-2.8905-1.6632 2.7591 0 0zm106.67-6.6667c-1.5264-2.8905-1.6632 2.7591 0 0zm-1.9452-3.422c.48041-8.9016-9.2445 5.4213 0 0zm-390.05-8.578c-1.5264-2.8905-1.6632 2.7591 0 0zm110.67 0c-1.5265-2.8905-1.6632 2.7591 0 0zm304-1.3333c-1.5264-2.8905-1.6632 2.7591 0 0zm-292.35-2.3333c-20.732-2.1088-45.113-9.3219-67.758-13.431 3.7963 7.7421 35.139 10.042 50.103 13.698 3.7232-.80303 17.986 4.1604 17.655-.26734zm1.3766-11.718c-13.03-8.1511-36.385-7.0142-53.188-13.293-27.682 3.0011 39.124 15.701 30.938 13.44 6.1338 1.3268 18.712 5.2435 22.25-.14635zm102.01-18.378c47.683-3.6304 97.986-8.1326 145.1-21.136 17.971-8.0635 45.089-7.1163 54.773-26.122-17.781-2.1951-20.729 10.633-42.132 12.289-77.149 24.356-160.26 30.51-240.69 22.883-39.037-5.2974-78.433-7.5491-116.76-16.811-19.52-3.4929-37.613-12.338-56.902-15.724 7.3957 15.86 34.287 16.49 50.902 22.934 66.799 14.457 134.91 25.88 203.58 23.449zm27.623 1.7627c-1.5265-2.8905-1.6632 2.7591 0 0zm-297.33-10.667c-1.5264-2.8905-1.6632 2.7591 0 0zm193.33-4c-1.5264-2.8905-1.6632 2.7591 0 0zm224-4c-1.5264-2.8905-1.6632 2.7591 0 0zm-38.667-6.6667c-1.5264-2.8905-1.6632 2.7591 0 0zm74.667-6.6667c-1.5265-2.8905-1.6632 2.7591 0 0zm-388-4c-1.5265-2.8905-1.6632 2.7591 0 0zm4 0c-1.5265-2.8905-1.6632 2.7591 0 0zm409.33-5.3333c-1.5265-2.8905-1.6632 2.7591 0 0zm-440-2.6667c-1.5265-2.8905-1.6632 2.7591 0 0zm137.33-6.6667c-1.5265-2.8905-1.6632 2.7591 0 0zm81.333 0c-1.5264-2.8905-1.6632 2.7591 0 0zm28.667-3.3983c42.411-4.2728 91.546-3.1997 126.02-29.483-14.946-4.0491-34.66 11.639-52.316 12.461-64.874 11.067-131.93 14.751-197.54 9.2494-27.422-3.3244-57.792-14.081-81.229-21.596 6.4011 12.953 31.767 19.052 48.314 23.337 51.018 11.63 104.64 8.1583 156.74 6.0316zm171.33-8.6017c-1.5264-2.8905-1.6632 2.7591 0 0zm-164-4c-1.5264-2.8905-1.6632 2.7591 0 0zm4 0c-1.5264-2.8905-1.6632 2.7591 0 0zm17.333-1.3333c-1.5264-2.8905-1.6632 2.7591 0 0zm138.67-4c-1.5264-2.8905-1.6632 2.7591 0 0zm-17.333-1.3333c-1.5265-2.8905-1.6632 2.7591 0 0zm-72-2.6667c-1.5264-2.8905-1.6632 2.7591 0 0zm-258.67-1.3333c-1.5265-2.8905-1.6632 2.7591 0 0zm20 0c-1.5265-2.8905-1.6632 2.7591 0 0zm65.333-6.6667c-1.5264-2.8905-1.6632 2.7591 0 0zm-104-1.3333c-1.5265-2.8905-1.6632 2.7591 0 0zm129.91-3.175c19.732-9.0006-24.145.20895-28.144-14.825-6.9233 9.9413 18.886 24.093 28.144 14.825zm-40.427-3.5699c12.03-12.354-21.205 2.3935-.866.44783zm69.182-1.2297c-12.576-13.875-7.4196 9.5459 0 0zm-152-1.3587c-1.5264-2.8905-1.6632 2.7591 0 0zm162.67-1.3333c-1.5264-2.8905-1.6632 2.7591 0 0zm133.33 0c-1.5264-2.8905-1.6632 2.7591 0 0zm-245.37-1.6667c-10.047-21.383-22.537 1.3168 0 0zm205.7-2.5267c6.1744-12.119-53.428 3.2992-15.185 1.5365 5.0265-.65833 10.301-.0713 15.185-1.5365zm-147 .19338c-1.5264-2.8905-1.6632 2.7591 0 0zm57.073-2.6278c3.144-58.91-.42656-119.25.16638-178.71-11.687-23.15 21.745-.87855-1.1214-22.576-19.131 1.6689-7.9161 35.514-11.277 50.539 1.7332 49.696-3.2232 100.98 3.2601 149.67.39133 4.8178 8.635 7.0949 8.972 1.0735zm38.927 1.8854c-14.458-13.566-21.572 5.3094 0 0zm-122.93-1.5242c6.2197-13.855-19.6-17.444-10.479-37.838.69329-49.063 8.5504-97.941 12.079-146.7-12.78-5.3026-9.747 32.027-12.578 43.372-1.836 45.819-8.7468 91.472-6.0891 137.43 3.3522 5.9525 11.963 7.5509 17.067 3.7333zm34.156-8.1954c4.9691-61.134 3.7729-122.55 9.1809-183.66 18.268 8.1408 5.5152 35.455 9.4654 51.704 2.3398 22.34 6.2526-37.001 5.812-29.586 3.5092-14.746-6.4871-44.002-23.891-27.938-2.6386 44.214-6.651 89.378-9.0808 133.71-1.5919 19.11-6.2403 40.13-.85707 58.714 3.5411 2.424 10.588 4.3147 9.3708-2.9524zm-25.889 1.1287c-1.5265-2.8905-1.6632 2.7591 0 0zm145.33 0c-1.5265-2.8905-1.6632 2.7591 0 0zm-36-1.3333c-1.5265-2.8905-1.6632 2.7591 0 0zm8-4.37c-12.814-42.154-4.3192-89.619-9.7688-133.83 2.2664-11.947-11.132-43.908 5.1901-42.415 15.456-7.003-25.997-20.941-14.725 6.8247 10.64 50.725.46896 105.14 9.8638 154.89 2.3384 3.0976 2.1895 20.32 9.44 14.537zm-166.49-14.1c1.2032-41.216 5.2204-85.599 4.9935-124.86-3.3589 16.835-5.5881 32.24-5.9088 49.011-1.5334 28.01-4.7644 62.478-1.618 86.668 4.2089-.43023.96702-8.111 2.5333-10.816zm44.402-2.5295c1.8601-34.13 8.5932-69.245 5.677-103-6.1114 35.247-9.1673 74.816-7.8197 108.67 3.165.99088 1.0336-4.2417 2.1426-5.6667zm154.21-17.971c-6.36-1.4895 4.1745 20.435 0 0zm-4.1229 8.3046c-1.5264-2.8905-1.6632 2.7591 0 0zm9.3333-6.6667c-1.5264-2.8905-1.6632 2.7591 0 0zm-9.3333-5.3333c-1.5264-2.8905-1.6632 2.7591 0 0zm-204-14.667c-1.5264-2.8905-1.6632 2.7591 0 0zm209.11-11.448c-3.2668-41.692-6.1209 32.448-.0616 2.2913zm-37.114-11.218c-1.5264-2.8905-1.6632 2.7591 0 0zm-125.33-4c-1.5264-2.8905-1.6632 2.7591 0 0zm29.333-8c-1.5264-2.8905-1.6632 2.7591 0 0zm-12-2.6667c-1.5264-2.8905-1.6632 2.7591 0 0zm-43.451-30c.45365-41.498-8.5428 30.271-1.3747 11.045.42754-3.6852 2.2807-7.2676 1.3747-11.045zm186.79 10.646c-2.7724-39.593-10.301 8.8915 0 0zm16.66-1.9791c-1.5264-2.8905-1.6632 2.7591 0 0zm-161.33-18.157c-2.497-14.449-3.6351 17.102 0 0zm141.31-2.176c-1.2691-15.856-2.0407 17.525 0 0zm-.54259-18.236c-8.0353-19.606 6.8082-29.478 4.6573-42.023-25.38-2.25-3.417 32.741-7.1206 47.866 3.0487 16.45 3.7709 1.2458 2.4633-5.8429zm-188.77 7.9026c-1.5265-2.8905-1.6632 2.7591 0 0zm6.2573-4.308c-1.7948-5.9942.0874 13.103 0 0zm149.74 2.9746c-1.5265-2.8905-1.6632 2.7591 0 0zm-146.67-9.3333c-1.5264-2.8905-1.6632 2.7591 0 0zm197.33-1.3333c-1.5265-2.8905-1.6632 2.7591 0 0zm-102.67-10.667c-1.5264-2.8905-1.6632 2.7591 0 0zm-89.527-14.383c10.263-26.213-14.846-.33889-6.2902 12.715 3.1992-3.7041 4.743-8.1575 6.2902-12.715zm36.173.13681c5.6252-24.613-31.188-2.6065-9.2346 1.5799 5.2601 2.5712 9.7757 11.662 9.2346-1.5799zm2.6871-3.0868c-1.5265-2.8905-1.6632 2.7591 0 0zm-45.333-4c-1.5264-2.8905-1.6632 2.7591 0 0zm85.333-1.3333c-1.5265-2.8905-1.6632 2.7591 0 0zm34.667 0c-1.5265-2.8905-1.6632 2.7591 0 0zm-117.33-4c-1.5265-2.8905-1.6632 2.7591 0 0zm174.67-4c-1.5265-2.8905-1.6632 2.7591 0 0zm-168-1.3333c-1.5264-2.8905-1.6632 2.7591 0 0zm170.67-1.3333c-1.5264-2.8905-1.6632 2.7591 0 0zm-128-5.3333c-1.5265-2.8905-1.6632 2.7591 0 0zm-3.1254-13.657c1.3184-36.791-8.9417 21.452-.38629 3.2616zm-6.208-17.009c-1.5264-2.8905-1.6632 2.7591 0 0zm6.2302-23.96c1.4316-24.92 5.084-49.373 9.9089-74.601 7.3338-8.9241 8.2228-25.337 11.83-36.631 12.021-.21926 57.764 5.0057 37.883-12.3-21.296 4.2729-43.696-3.504-63.861-1.167 6.3739 10.609 3.02 28.157-2.1932 45.073-1.5034 10.101-4.7713 59.81 2.8278 27.712 2.61-28.078 7.5378-35.742 3.8397-2.792-3.987 26.175-3.5531 51.69-4.0323 77.333 7.0835-4.7215 2.2126-15.407 3.7971-22.627zm1.875-84.151c1.037-8.5523 1.0504 8.6941 0 0zm1.2281-4.5556c1.242-5.8967 1.3483 5.6101 0 0zm-9.3333 74c-1.5265-2.8905-1.6632 2.7591 0 0zm-4-5.3333c-1.5264-2.8905-1.6632 2.7591 0 0zm141.33-14.667c-1.5265-2.8905-1.6632 2.7591 0 0zm-1.3333-8c-1.5265-2.8905-1.6632 2.7591 0 0zm-8-29.333c-1.5264-2.8905-1.6632 2.7591 0 0zm-129.33-42.631c-6.1833-10.009-21.208 51.828-7.0528 17.865 1.9288-6.0074 7.5836-11.318 7.0528-17.865zm-24 21.298c-1.5264-2.8905-1.6632 2.7591 0 0zm98.667-12c-1.5265-2.8905-1.6632 2.7591 0 0zm-6.6667-30.667c-1.5264-2.8905-1.6632 2.7591 0 0z"/>
</svg>
